<?xml version="1.0" encoding="utf-8"?>
<!-- Generator: Adobe Illustrator 25.2.3, SVG Export Plug-In . SVG Version: 6.00 Build 0)  -->
<svg version="1.1" id="Layer_1" xmlns="http://www.w3.org/2000/svg" xmlns:xlink="http://www.w3.org/1999/xlink" x="0px" y="0px"
	 viewBox="0 0 258.3 258" style="enable-background:new 0 0 258.3 258;" xml:space="preserve">
<style type="text/css">
	.st0{fill:#fff;}
</style>
<g id="Wrench" transform="translate(344.105 1342.747)">
	<path id="Path_143" class="st0" d="M-275.1-1150.7c-0.4-1.5-1.6-2.6-3-3l-24-6.4c-1.5-0.4-3.1,0-4.2,1.1l-17.5,17.6
		c-1.1,1.1-1.5,2.7-1.1,4.1l6.4,24c0.4,1.5,1.6,2.6,3,3l24,6.4c0.4,0.1,0.7,0.1,1.1,0.1c1.1,0,2.2-0.5,3-1.3l17.6-17.5
		c1.1-1.1,1.5-2.7,1.1-4.2L-275.1-1150.7z M-291.6-1112.8l-19.2-5.2l-5.1-19.1l14-14l19.2,5.2l5.2,19.2L-291.6-1112.8z"/>
	<path id="Path_144" class="st0" d="M-87-1147.2l-24.3-24.3c-0.8-0.8-1.9-1.3-3.1-1.2c-1.1,0-2.2,0.4-3,1.2l-2.9,2.9
		c-5.2-5.9-8.4-13.3-9.2-21.1l-3.1-27.6c-1-8.7-4.9-16.9-11.1-23.1l-1-1l5.5-5.6c0.8-0.8,1.9-1.3,3.1-1.2c26,1.6,48.4-18.2,50-44.2
		c0.4-6.9-0.7-13.8-3.2-20.2c-0.9-2.2-3.3-3.3-5.6-2.5c-0.6,0.2-1.1,0.5-1.5,1l-26.3,26.4l-16-2.3l-2.3-16l26.4-26.3
		c1-1,1.5-2.5,1.2-3.9s-1.3-2.6-2.7-3.1c-24.3-9.5-51.7,2.4-61.2,26.6c-2.5,6.4-3.6,13.3-3.2,20.2c0,1.1-0.4,2.2-1.2,3.1l-17.8,17.8
		l-12.2-12.2c-6.6-6.7-17.5-6.8-24.2-0.1c-2.9,2.9-4.7,6.8-5,10.9c-9.1-2.4-18.4,3.1-20.8,12.2c-1.1,4-0.6,8.3,1.3,12
		c-3.4,0.6-6.5,2.2-9,4.6c-4.3,4.3-6,10.6-4.4,16.5c-9.4,0.6-16.5,8.8-15.8,18.1c0.3,4.1,2.1,8.1,5,11l6.1,6.1l-12.3,12.3
		c-0.8,0.8-1.9,1.3-3.1,1.2c-0.9,0-1.8,0-2.8-0.1c-26.1,0-47.3,21.2-47.3,47.3c0,26.1,21.2,47.3,47.3,47.3l0,0h0.1
		c26.1,0,47.3-21.2,47.2-47.3l0,0c0-0.9,0-1.9-0.1-2.8c-0.1-1.2,0.4-2.3,1.2-3.1l12.3-12.3l48.7,48.6l-3.1,3.1
		c-0.8,0.8-1.3,1.9-1.3,3.1c0,1.1,0.5,2.2,1.3,3l6.1,6.1c0.8,0.8,1.9,1.2,3.1,1.2c1.1,0,2.2-0.5,3.1-1.2c1.7-1.7,1.7-4.4,0-6.1
		l-3.1-3l66.8-66.9l21.3,21.3c1.7,1.7,4.4,1.7,6.1,0C-85.4-1142.8-85.4-1145.5-87-1147.2L-87-1147.2z M-175.7-1283.5
		c2.6-2.5,3.9-6,3.7-9.6c-1.3-21.3,15-39.6,36.3-40.9c3.3-0.2,6.6,0,9.8,0.7l-22.7,22.7c-1,1-1.4,2.3-1.3,3.7l3.1,21.3
		c0.3,1.9,1.8,3.4,3.7,3.7l21.3,3.1c1.3,0.2,2.7-0.3,3.7-1.2l22.7-22.7c4.2,20.9-9.4,41.3-30.4,45.5c-3.2,0.6-6.5,0.9-9.8,0.7
		c-3.6-0.2-7.1,1.2-9.6,3.7l-5.6,5.6l-12.2-12.2c-6.8-6.5-17.5-6.5-24.3,0l-6.1-6.1L-175.7-1283.5z M-229.9-1277.9
		c3.4-3.2,8.7-3.2,12.2,0l24.3,24.3l-12.2,12.2l-24.3-24.3C-233.2-1269.1-233.2-1274.5-229.9-1277.9z M-251.2-1262.7
		c3.4-3.3,8.8-3.3,12.2,0l27.4,27.3l0.5,0.6c-1.6,3.4-1.6,7.4,0,10.9l-0.5,0.6c-3.4,3.2-8.7,3.2-12.2,0l-10.7-10.7l-16.7-16.7
		C-254.5-1253.9-254.5-1259.3-251.2-1262.7L-251.2-1262.7L-251.2-1262.7z M-263.3-1238.4c3.4-3.3,8.8-3.3,12.1,0l10.7,10.7
		l10.6,10.6l0,0l6,6.1c3.4,3.3,3.5,8.8,0.2,12.2c-3.3,3.4-8.8,3.5-12.2,0.2c-0.1-0.1-0.1-0.1-0.2-0.2l-24.3-24.3l-3-3.1
		C-266.7-1229.6-266.7-1235-263.3-1238.4L-263.3-1238.4L-263.3-1238.4z M-281.1-1211c0-2.3,0.9-4.5,2.5-6.1s3.8-2.5,6.1-2.5
		c2.3,0,4.5,0.9,6.1,2.5l24.3,24.3l3,3.1c3.4,3.3,3.5,8.8,0.2,12.2c-3.3,3.4-8.8,3.5-12.2,0.2c-0.1-0.1-0.1-0.1-0.2-0.2l-27.3-27.4
		C-280.2-1206.6-281.1-1208.7-281.1-1211L-281.1-1211z M-181.3-1107.7l-48.7-48.6l45.6-45.6c1.7-1.7,1.7-4.4,0-6.1s-4.4-1.7-6.1,0
		l0,0l-64.1,64.1c-2.6,2.5-3.9,6-3.7,9.6c0,0.8,0.1,1.5,0.1,2.3c0,21.3-17.3,38.7-38.6,38.7h-0.1c-21.4,0-38.7-17.3-38.7-38.7
		c0-21.4,17.3-38.7,38.7-38.7c0.6,0,1.6,0,2.4,0.1c3.6,0.2,7.1-1.2,9.6-3.7l12.3-12.4l15.2,15.2c6.7,6.7,17.5,6.8,24.2,0.1
		c4.3-4.3,6-10.6,4.5-16.5c9.4-0.7,16.4-8.8,15.7-18.2c-0.2-2.2-0.7-4.3-1.7-6.3c3.4-0.6,6.5-2.3,8.9-4.7c0.1-0.1,0.2-0.2,0.3-0.3
		c8.5,5.6,19.8,4.5,27.1-2.7c1.7-1.6,4.4-1.6,6.1,0c0.8,0.8,1.3,1.9,1.2,3c0,1.1-0.4,2.2-1.2,3.1l-3.1,3.1
		c-11.7,11.8-11.7,30.8,0,42.6l3.1,3c1.6,1.7,4.3,1.7,5.9,0.1l0.1-0.1c1.7-1.7,1.7-4.4,0-6.1l-3-3.1c-8.4-8.4-8.4-22,0-30.4l3-3.1
		c5-5,5-13.2,0-18.2l0,0c-5.1-4.9-13.1-4.9-18.2,0c-5,5-13.2,5-18.2,0c-1.7-1.7-1.7-4.4,0-6.1l21.3-21.3c3.4-3.3,8.8-3.3,12.2,0
		l19.3,19.2c4.8,4.9,7.9,11.2,8.6,18l3.1,27.6c1.1,9.7,5.2,18.9,11.7,26.2L-181.3-1107.7z"/>
</g>
</svg>
