<!DOCTYPE svg PUBLIC "-//W3C//DTD SVG 1.1//EN" "http://www.w3.org/Graphics/SVG/1.1/DTD/svg11.dtd">
<!-- Uploaded to: SVG Repo, www.svgrepo.com, Transformed by: SVG Repo Mixer Tools -->
<svg width="800px" height="800px" viewBox="0 0 24 24" fill="none" xmlns="http://www.w3.org/2000/svg">
<g id="SVGRepo_bgCarrier" stroke-width="0"/>
<g id="SVGRepo_tracerCarrier" stroke-linecap="round" stroke-linejoin="round"/>
<g id="SVGRepo_iconCarrier"> <path d="M2 2H22" stroke="#ffffff" stroke-width="1.5" stroke-linecap="round"/> <path d="M9 10.5L10.2929 9.20711C10.6262 8.87377 10.7929 8.70711 11 8.70711C11.2071 8.70711 11.3738 8.87377 11.7071 9.20711L12.2929 9.79289C12.6262 10.1262 12.7929 10.2929 13 10.2929C13.2071 10.2929 13.3738 10.1262 13.7071 9.79289L15 8.5" stroke="#ffffff" stroke-width="1.5" stroke-linecap="round"/> <path d="M12 21L12 17" stroke="#ffffff" stroke-width="1.5" stroke-linecap="round"/> <path d="M10 22L12 21" stroke="#ffffff" stroke-width="1.5" stroke-linecap="round"/> <path d="M14 22L12 21" stroke="#ffffff" stroke-width="1.5" stroke-linecap="round"/> <path d="M20 2V10.5C20 13.5641 20 15.0962 18.9958 16.0481C17.9916 17 16.3753 17 13.1429 17H10.8571C7.62465 17 6.00841 17 5.00421 16.0481C4 15.0962 4 13.5641 4 10.5V2" stroke="#ffffff" stroke-width="1.5"/> </g>
</svg>