<?xml version="1.0" encoding="utf-8"?>
<svg version="1.1" xmlns="http://www.w3.org/2000/svg" x="0px" y="0px" viewBox="0 0 256 256" enable-background="new 0 0 256 256">
  <g>
    <g>
      <path d="M 98 177.9 L 177.9 128 L 98 78.1 L 98 177.9 Z M 215.5 108 L 246 108 C 159.939 128.775 111.67 97.178 148 9.9 L 148 40.6 C 181.5 48.3 207.9 74.5 215.5 108 Z M 40.5 148 L 10 148 C 125.98 132.574 123.444 197.778 108 246.1 L 108 215.4 C 74.5 207.7 48.1 181.5 40.5 148 Z M 108 40.7 L 108 9.9 C 140.76 84.428 101.323 124.079 10 108 L 40.5 108 C 48.1 74.5 74.5 48.3 108 40.7 Z M 148 215.3 L 148 246 C 131.881 194.721 113.246 117.476 246 147.9 L 215.5 147.9 C 207.9 181.5 181.5 207.7 148 215.3 Z" style="fill: rgba(29, 185, 84, 0.39);"/>
    </g>
  </g>
</svg>